<svg xmlns="http://www.w3.org/2000/svg" xml:space="preserve" width="800" height="800" viewBox="0 0 490 490"><path d="M479.574 78.191H10.425c-.071 0-.141.007-.211.008l.001.003C4.556 78.315 0 82.925 0 88.617v312.766c0 5.762 4.669 10.426 10.425 10.426h469.149c5.758 0 10.426-4.664 10.426-10.426V88.617c0-5.763-4.668-10.426-10.426-10.426zm-25.167 20.852-138.581 138.58-.006.005L245 308.449l-70.82-70.821-.013-.012L35.594 99.043h418.813zM20.851 113.784l131.215 131.215L20.851 376.215V113.784zm14.743 277.173 131.215-131.216 70.821 70.821c3.629 3.629 9.303 5.439 14.743 0l70.82-70.82 131.215 131.215H35.594zm433.555-14.744L337.935 244.999l131.214-131.214v262.428z" fill="currentColor"/></svg>